<svg width="33" height="25" viewBox="0 0 33 25" fill="none" xmlns="http://www.w3.org/2000/svg">
<path d="M28.4266 2.77238C25.5711 0.417207 21.0538 0.0179769 20.8604 0.00361598C20.5605 -0.0222332 20.2747 0.150097 20.1514 0.43444C20.1402 0.451673 20.0421 0.684318 19.9328 1.04621C21.8216 1.37364 24.1419 2.03136 26.2408 3.36691C26.5771 3.57945 26.6808 4.03325 26.4734 4.37791C26.3361 4.60481 26.1035 4.72831 25.8625 4.72831C25.7336 4.72831 25.6019 4.69098 25.4842 4.6163C21.8748 2.32145 17.3687 2.20656 16.5 2.20656C15.6313 2.20656 11.1224 2.32145 7.51579 4.6163C7.17952 4.83171 6.73675 4.72544 6.52938 4.38078C6.31921 4.03325 6.42289 3.58232 6.75917 3.36691C8.8581 2.03423 11.1784 1.37364 13.0672 1.04908C12.9579 0.684318 12.8598 0.454545 12.8514 0.43444C12.7253 0.150097 12.4423 -0.0279776 12.1396 0.00361598C11.9462 0.0179769 7.42892 0.417207 4.53414 2.80397C3.02369 4.23718 0 12.6124 0 19.8531C0 19.9823 0.0336277 20.1058 0.0952785 20.2179C2.1802 23.9746 7.87169 24.9569 9.16916 25C9.17476 25 9.18317 25 9.19158 25C9.42137 25 9.63714 24.888 9.77165 24.6984L11.0831 22.8488C7.54382 21.9124 5.73633 20.3213 5.63264 20.2265C5.3356 19.9594 5.30757 19.4941 5.57099 19.1896C5.83161 18.8852 6.28558 18.8565 6.58263 19.1236C6.62466 19.1638 9.9538 22.0589 16.5 22.0589C23.0574 22.0589 26.3865 19.1523 26.4202 19.1236C26.7172 18.8593 27.1684 18.8852 27.4318 19.1925C27.6924 19.4969 27.6644 19.9594 27.3674 20.2265C27.2637 20.3213 25.4562 21.9124 21.9169 22.8488L23.2283 24.6984C23.3629 24.888 23.5786 25 23.8084 25C23.8168 25 23.8252 25 23.8308 25C25.1283 24.9569 30.8198 23.9746 32.9047 20.2179C32.9664 20.1058 33 19.9823 33 19.8531C33 12.6124 29.9763 4.23718 28.4266 2.77238ZM11.837 16.912C10.4498 16.912 9.32609 15.5966 9.32609 13.9709C9.32609 12.3453 10.4498 11.0298 11.837 11.0298C13.2241 11.0298 14.3478 12.3453 14.3478 13.9709C14.3478 15.5966 13.2241 16.912 11.837 16.912ZM21.163 16.912C19.7759 16.912 18.6522 15.5966 18.6522 13.9709C18.6522 12.3453 19.7759 11.0298 21.163 11.0298C22.5502 11.0298 23.6739 12.3453 23.6739 13.9709C23.6739 15.5966 22.5502 16.912 21.163 16.912Z" fill="white"/>
</svg>
