<svg width="28" height="25" viewBox="0 0 28 25" fill="none" xmlns="http://www.w3.org/2000/svg">
<path d="M27.4713 0.343677C26.9936 -0.0538243 26.2435 -0.110699 25.4678 0.194927H25.4665C24.6508 0.516177 2.3746 9.8937 1.46776 10.2768C1.30282 10.3331 -0.137676 10.8606 0.0107043 12.0356C0.143164 13.095 1.30091 13.5337 1.44229 13.5843L7.10558 15.4875C7.4813 16.715 8.8664 21.2437 9.17271 22.2112C9.36376 22.8144 9.67517 23.6069 10.2209 23.77C10.6998 23.9512 11.1762 23.7856 11.4844 23.5481L14.9468 20.3962L20.5362 24.6744L20.6693 24.7525C21.0489 24.9175 21.4125 25 21.7596 25C22.0277 25 22.285 24.9506 22.5308 24.8519C23.3682 24.5144 23.7032 23.7312 23.7382 23.6425L27.9132 2.34431C28.1679 1.2068 27.8139 0.628053 27.4713 0.343677ZM12.1002 16.2487L10.1897 21.2487L8.27925 14.9987L22.9262 4.37369L12.1002 16.2487Z" fill="white"/>
</svg>
