<svg width="31" height="25" viewBox="0 0 31 25" fill="none" xmlns="http://www.w3.org/2000/svg">
<path d="M31 2.95866C29.8572 3.46217 28.6323 3.80023 27.3446 3.95368C28.6589 3.17205 29.6688 1.93488 30.1423 0.462741C28.915 1.18443 27.5499 1.7095 26.1027 1.99242C24.943 0.764841 23.2905 0 21.4615 0C17.9486 0 15.1001 2.8244 15.1001 6.31054C15.1001 6.80445 15.1581 7.28637 15.2669 7.74911C9.98059 7.48537 5.29592 4.97267 2.15751 1.15326C1.60907 2.08833 1.2974 3.17205 1.2974 4.32771C1.2974 6.51674 2.41844 8.44922 4.12657 9.58329C3.08285 9.54973 2.10194 9.26441 1.24425 8.79208C1.24425 8.81845 1.24425 8.84483 1.24425 8.8712C1.24425 11.9306 3.438 14.4792 6.34448 15.0619C5.81295 15.2057 5.25002 15.2824 4.67017 15.2824C4.25945 15.2824 3.86081 15.2441 3.47183 15.1674C4.28361 17.6729 6.63199 19.5023 9.41283 19.5526C7.23841 21.2453 4.49622 22.2523 1.51485 22.2523C1.00023 22.2523 0.495285 22.2236 0 22.1636C2.81225 23.957 6.15603 25 9.74866 25C21.447 25 27.8447 15.3831 27.8447 7.04421C27.8447 6.77088 27.8374 6.49516 27.8278 6.22662C29.0696 5.33711 30.1471 4.22461 31 2.95866Z" fill="white"/>
</svg>
